<?xml version="1.0" encoding="UTF-8" standalone="no"?>
<!DOCTYPE svg PUBLIC "-//W3C//DTD SVG 1.1//EN"
 "http://www.w3.org/Graphics/SVG/1.1/DTD/svg11.dtd">
<!-- Generated by graphviz version 2.47.0 (20210316.0004)
 -->
<!-- Title: dependencies Pages: 1 -->
<svg width="1197pt" height="284pt"
 viewBox="0.00 0.00 1197.00 284.00" xmlns="http://www.w3.org/2000/svg" xmlns:xlink="http://www.w3.org/1999/xlink">
<g id="graph0" class="graph" transform="scale(1 1) rotate(0) translate(4 280)">
<title>dependencies</title>
<polygon fill="white" stroke="transparent" points="-4,4 -4,-280 1193,-280 1193,4 -4,4"/>
<text text-anchor="start" x="573.51" y="-42.4" font-family="Times-12" font-weight="bold" font-size="14.00">Legend</text>
<polygon fill="#ffffb3" stroke="transparent" points="360.5,-10 360.5,-30 380.5,-30 380.5,-10 360.5,-10"/>
<text text-anchor="start" x="384.13" y="-15.4" font-family="Times-12" font-size="14.00"> &#160;Declarations</text>
<polygon fill="#8dd3c7" stroke="transparent" points="473.5,-10 473.5,-30 493.5,-30 493.5,-10 473.5,-10"/>
<text text-anchor="start" x="497.23" y="-15.4" font-family="Times-12" font-size="14.00"> &#160;Module</text>
<polygon fill="#80b1d3" stroke="transparent" points="559.5,-10 559.5,-30 579.5,-30 579.5,-10 559.5,-10"/>
<text text-anchor="start" x="583.28" y="-15.4" font-family="Times-12" font-size="14.00"> &#160;Bootstrap</text>
<polygon fill="#fdb462" stroke="transparent" points="656.5,-10 656.5,-30 676.5,-30 676.5,-10 656.5,-10"/>
<text text-anchor="start" x="680.17" y="-15.4" font-family="Times-12" font-size="14.00"> &#160;Providers</text>
<polygon fill="#fb8072" stroke="transparent" points="752.5,-10 752.5,-30 772.5,-30 772.5,-10 752.5,-10"/>
<text text-anchor="start" x="776.23" y="-15.4" font-family="Times-12" font-size="14.00"> &#160;Exports</text>
<g id="clust1" class="cluster">
<title>cluster_AppModule</title>
<polygon fill="none" stroke="black" stroke-dasharray="1,5" points="8,-70 8,-268 1181,-268 1181,-70 8,-70"/>
</g>
<g id="clust10" class="cluster">
<title>cluster_AppModule_imports</title>
<polygon fill="none" stroke="black" points="1029,-78 1029,-130 1173,-130 1173,-78 1029,-78"/>
</g>
<g id="clust2" class="cluster">
<title>cluster_AppModule_declarations</title>
<polygon fill="none" stroke="black" points="16,-78 16,-130 1021,-130 1021,-78 16,-78"/>
</g>
<g id="clust12" class="cluster">
<title>cluster_AppModule_bootstrap</title>
<polygon fill="none" stroke="black" points="544,-208 544,-260 668,-260 668,-208 544,-208"/>
</g>
<!-- AppComponent -->
<g id="node1" class="node">
<title>AppComponent</title>
<polygon fill="#ffffb3" stroke="black" points="1012.94,-122 907.06,-122 907.06,-86 1012.94,-86 1012.94,-122"/>
<text text-anchor="middle" x="960" y="-99.8" font-family="Times,serif" font-size="14.00">AppComponent</text>
</g>
<!-- AppModule -->
<g id="node8" class="node">
<title>AppModule</title>
<polygon fill="#8dd3c7" stroke="black" points="647.66,-187 644.66,-191 623.66,-191 620.66,-187 564.34,-187 564.34,-151 647.66,-151 647.66,-187"/>
<text text-anchor="middle" x="606" y="-164.8" font-family="Times,serif" font-size="14.00">AppModule</text>
</g>
<!-- AppComponent&#45;&gt;AppModule -->
<g id="edge1" class="edge">
<title>AppComponent&#45;&gt;AppModule</title>
<path fill="none" stroke="black" d="M960,-122.11C960,-141.34 960,-169 960,-169 960,-169 658,-169 658,-169"/>
<polygon fill="black" stroke="black" points="658,-165.5 648,-169 658,-172.5 658,-165.5"/>
</g>
<!-- BookDetailComponent -->
<g id="node2" class="node">
<title>BookDetailComponent</title>
<polygon fill="#ffffb3" stroke="black" points="888.88,-122 743.12,-122 743.12,-86 888.88,-86 888.88,-122"/>
<text text-anchor="middle" x="816" y="-99.8" font-family="Times,serif" font-size="14.00">BookDetailComponent</text>
</g>
<!-- BookDetailComponent&#45;&gt;AppModule -->
<g id="edge2" class="edge">
<title>BookDetailComponent&#45;&gt;AppModule</title>
<path fill="none" stroke="black" d="M816,-122.03C816,-138.4 816,-160 816,-160 816,-160 657.74,-160 657.74,-160"/>
<polygon fill="black" stroke="black" points="657.74,-156.5 647.74,-160 657.74,-163.5 657.74,-156.5"/>
</g>
<!-- BookFilterPipe -->
<g id="node3" class="node">
<title>BookFilterPipe</title>
<polygon fill="#ffffb3" stroke="black" points="724.55,-122 623.45,-122 623.45,-86 724.55,-86 724.55,-122"/>
<text text-anchor="middle" x="674" y="-99.8" font-family="Times,serif" font-size="14.00">BookFilterPipe</text>
</g>
<!-- BookFilterPipe&#45;&gt;AppModule -->
<g id="edge3" class="edge">
<title>BookFilterPipe&#45;&gt;AppModule</title>
<path fill="none" stroke="black" d="M635.53,-122.11C635.53,-122.11 635.53,-140.99 635.53,-140.99"/>
<polygon fill="black" stroke="black" points="632.03,-140.99 635.53,-150.99 639.03,-140.99 632.03,-140.99"/>
</g>
<!-- BookListComponent -->
<g id="node4" class="node">
<title>BookListComponent</title>
<polygon fill="#ffffb3" stroke="black" points="604.95,-122 471.05,-122 471.05,-86 604.95,-86 604.95,-122"/>
<text text-anchor="middle" x="538" y="-99.8" font-family="Times,serif" font-size="14.00">BookListComponent</text>
</g>
<!-- BookListComponent&#45;&gt;AppModule -->
<g id="edge4" class="edge">
<title>BookListComponent&#45;&gt;AppModule</title>
<path fill="none" stroke="black" d="M584.45,-122.11C584.45,-122.11 584.45,-140.99 584.45,-140.99"/>
<polygon fill="black" stroke="black" points="580.95,-140.99 584.45,-150.99 587.95,-140.99 580.95,-140.99"/>
</g>
<!-- CalculatorComponent -->
<g id="node5" class="node">
<title>CalculatorComponent</title>
<polygon fill="#ffffb3" stroke="black" points="452.65,-122 313.35,-122 313.35,-86 452.65,-86 452.65,-122"/>
<text text-anchor="middle" x="383" y="-99.8" font-family="Times,serif" font-size="14.00">CalculatorComponent</text>
</g>
<!-- CalculatorComponent&#45;&gt;AppModule -->
<g id="edge5" class="edge">
<title>CalculatorComponent&#45;&gt;AppModule</title>
<path fill="none" stroke="black" d="M383,-122.03C383,-138.4 383,-160 383,-160 383,-160 554.32,-160 554.32,-160"/>
<polygon fill="black" stroke="black" points="554.32,-163.5 564.32,-160 554.32,-156.5 554.32,-163.5"/>
</g>
<!-- RatingComponent -->
<g id="node6" class="node">
<title>RatingComponent</title>
<polygon fill="#ffffb3" stroke="black" points="295.17,-122 176.83,-122 176.83,-86 295.17,-86 295.17,-122"/>
<text text-anchor="middle" x="236" y="-99.8" font-family="Times,serif" font-size="14.00">RatingComponent</text>
</g>
<!-- RatingComponent&#45;&gt;AppModule -->
<g id="edge6" class="edge">
<title>RatingComponent&#45;&gt;AppModule</title>
<path fill="none" stroke="black" d="M236,-122.11C236,-141.34 236,-169 236,-169 236,-169 554.28,-169 554.28,-169"/>
<polygon fill="black" stroke="black" points="554.28,-172.5 564.28,-169 554.28,-165.5 554.28,-172.5"/>
</g>
<!-- WelcomeComponent -->
<g id="node7" class="node">
<title>WelcomeComponent</title>
<polygon fill="#ffffb3" stroke="black" points="158.47,-122 23.53,-122 23.53,-86 158.47,-86 158.47,-122"/>
<text text-anchor="middle" x="91" y="-99.8" font-family="Times,serif" font-size="14.00">WelcomeComponent</text>
</g>
<!-- WelcomeComponent&#45;&gt;AppModule -->
<g id="edge7" class="edge">
<title>WelcomeComponent&#45;&gt;AppModule</title>
<path fill="none" stroke="black" d="M91,-122.29C91,-144.21 91,-178 91,-178 91,-178 554.29,-178 554.29,-178"/>
<polygon fill="black" stroke="black" points="554.29,-181.5 564.29,-178 554.29,-174.5 554.29,-181.5"/>
</g>
<!-- AppComponent  -->
<g id="node10" class="node">
<title>AppComponent </title>
<polygon fill="#80b1d3" stroke="black" points="660.44,-252 551.56,-252 551.56,-216 660.44,-216 660.44,-252"/>
<text text-anchor="middle" x="606" y="-229.8" font-family="Times,serif" font-size="14.00">AppComponent </text>
</g>
<!-- AppModule&#45;&gt;AppComponent  -->
<g id="edge9" class="edge">
<title>AppModule&#45;&gt;AppComponent </title>
<path fill="none" stroke="black" stroke-dasharray="1,5" d="M606,-187.11C606,-187.11 606,-205.99 606,-205.99"/>
<polygon fill="black" stroke="black" points="602.5,-205.99 606,-215.99 609.5,-205.99 602.5,-205.99"/>
</g>
<!-- AppRoutingModule -->
<g id="node9" class="node">
<title>AppRoutingModule</title>
<polygon fill="#8dd3c7" stroke="black" points="1165.27,-122 1162.27,-126 1141.27,-126 1138.27,-122 1036.73,-122 1036.73,-86 1165.27,-86 1165.27,-122"/>
<text text-anchor="middle" x="1101" y="-99.8" font-family="Times,serif" font-size="14.00">AppRoutingModule</text>
</g>
<!-- AppRoutingModule&#45;&gt;AppModule -->
<g id="edge8" class="edge">
<title>AppRoutingModule&#45;&gt;AppModule</title>
<path fill="none" stroke="black" d="M1101,-122.29C1101,-144.21 1101,-178 1101,-178 1101,-178 657.78,-178 657.78,-178"/>
<polygon fill="black" stroke="black" points="657.78,-174.5 647.78,-178 657.78,-181.5 657.78,-174.5"/>
</g>
</g>
</svg>
